<svg width="52" height="56" viewBox="0 0 52 56" fill="none" xmlns="http://www.w3.org/2000/svg">
<g id="apple-13 1">
<g id="Group 1171275733">
<path id="Vector" d="M24.8212 26.5173C24.8212 27.0696 24.3735 27.5173 23.8212 27.5173H3.19873C2.64645 27.5173 2.19873 27.0696 2.19873 26.5173V5.89844C2.19873 5.34615 2.64645 4.89844 3.19873 4.89844H23.8212C24.3735 4.89844 24.8212 5.34615 24.8212 5.89844V26.5173Z" fill="#F1511B"/>
<path id="Vector_2" d="M49.8 27.5173H28.1755C27.6233 27.5173 27.1755 27.0696 27.1755 26.5173V5.89844C27.1755 5.34615 27.6233 4.89844 28.1755 4.89844H48.798C49.3503 4.89844 49.798 5.34615 49.798 5.89844V27.5154C49.798 27.5165 49.7989 27.5173 49.8 27.5173Z" fill="#80CC28"/>
<path id="Vector_3" d="M24.8212 51.5007C24.8212 52.053 24.3735 52.5007 23.8212 52.5007H3.19873C2.64645 52.5007 2.19873 52.053 2.19873 51.5007V30.8818C2.19873 30.3296 2.64645 29.8818 3.19873 29.8818H23.8212C24.3735 29.8818 24.8212 30.3296 24.8212 30.8818V51.5007Z" fill="#00ADEF"/>
<path id="Vector_4" d="M49.8 52.5007H28.1755C27.6233 52.5007 27.1755 52.053 27.1755 51.5007V30.8818C27.1755 30.3296 27.6233 29.8818 28.1755 29.8818H48.798C49.3503 29.8818 49.798 30.3296 49.798 30.8818V52.4988C49.798 52.4999 49.7989 52.5007 49.8 52.5007Z" fill="#FBBC09"/>
</g>
</g>
</svg>
