<svg width="52" height="56" viewBox="0 0 52 56" fill="none" xmlns="http://www.w3.org/2000/svg">
<g id="apple-13 1" clip-path="url(#clip0_102_764)">
<path id="Vector" d="M42.5004 29.4953C42.4749 24.9221 44.5923 21.4704 48.878 18.9283C46.48 15.5763 42.8576 13.7321 38.0744 13.3707C33.5464 13.0218 28.5975 15.9502 26.7862 15.9502C24.873 15.9502 20.4853 13.4953 17.0414 13.4953C9.92409 13.6075 2.36035 19.0405 2.36035 30.0935C2.36035 33.3583 2.97259 36.731 4.19708 40.2118C5.82972 44.785 11.7225 56 17.8705 55.8131C21.0847 55.7383 23.3551 53.5826 27.5388 53.5826C31.5949 53.5826 33.6995 55.8131 37.2836 55.8131C43.4826 55.7259 48.8142 45.5327 50.3703 40.947C42.054 37.1215 42.5004 29.7321 42.5004 29.4953ZM35.2811 9.03427C38.7632 4.99688 38.4443 1.32087 38.3423 0C35.2683 0.174455 31.7097 2.04361 29.6816 4.34891C27.4495 6.8162 26.1357 9.86916 26.4163 13.3084C29.7454 13.5576 32.7811 11.8878 35.2811 9.03427Z" fill="#3D3C48"/>
</g>
<defs>
<clipPath id="clip0_102_764">
<rect width="51.1304" height="56" fill="white" transform="translate(0.800049)"/>
</clipPath>
</defs>
</svg>
